<?xml version="1.0" standalone="no"?>
<!DOCTYPE svg PUBLIC "-//W3C//DTD SVG 20010904//EN"
 "http://www.w3.org/TR/2001/REC-SVG-20010904/DTD/svg10.dtd">
<svg version="1.0" xmlns="http://www.w3.org/2000/svg"
 width="700.000000pt" height="700.000000pt" viewBox="0 0 700.000000 700.000000"
 preserveAspectRatio="xMidYMid meet">
<metadata>
Created by potrace 1.14, written by Peter Selinger 2001-2017
</metadata>
<g transform="translate(0.000000,700.000000) scale(0.100000,-0.100000)"
fill="#000000" stroke="none">
<path d="M3278 6996 c-1 -2 -39 -6 -83 -10 -112 -8 -266 -30 -365 -51 -14 -3
-47 -10 -75 -15 -149 -30 -469 -130 -592 -186 -28 -13 -55 -24 -58 -24 -13 0
-309 -152 -383 -197 -80 -48 -243 -154 -252 -163 -3 -3 -41 -32 -85 -65 -44
-32 -88 -66 -97 -75 -9 -8 -41 -35 -72 -60 -54 -44 -300 -289 -364 -362 -269
-309 -519 -739 -652 -1123 -84 -242 -152 -532 -175 -742 -28 -255 -27 -642 0
-840 10 -67 14 -99 20 -148 4 -27 10 -66 15 -85 5 -19 12 -48 14 -65 54 -301
217 -727 399 -1040 148 -256 363 -531 579 -742 82 -79 118 -112 228 -207 94
-81 327 -243 470 -326 96 -56 307 -161 413 -204 175 -72 465 -162 614 -191 96
-18 255 -45 293 -49 246 -28 665 -28 860 0 410 60 739 156 1067 312 l83 39 57
-56 c87 -85 114 -105 210 -163 185 -111 360 -157 588 -153 112 2 159 8 235 28
212 57 364 144 514 293 125 126 247 339 282 495 32 145 32 149 30 1554 -1 765
-5 1410 -9 1435 -3 25 -9 72 -12 105 -6 52 -31 203 -50 300 -3 17 -21 89 -40
160 -194 742 -615 1387 -1223 1873 -81 64 -335 242 -346 242 -2 0 -33 18 -68
39 -322 196 -808 369 -1193 427 -27 4 -57 9 -65 10 -8 2 -42 6 -76 9 -33 4
-74 9 -90 11 -32 5 -540 14 -546 10z m542 -319 c25 -4 68 -9 95 -12 168 -21
380 -69 550 -124 106 -35 153 -52 257 -92 136 -53 384 -187 545 -295 725 -488
1220 -1243 1372 -2094 29 -164 29 -161 38 -247 10 -96 11 -2812 1 -2868 -47
-259 -237 -484 -493 -586 -184 -72 -420 -63 -610 24 -137 63 -240 155 -343
308 l-58 86 -135 -74 c-299 -163 -608 -274 -934 -337 -71 -14 -151 -27 -177
-30 -102 -12 -135 -16 -193 -21 -66 -6 -400 -7 -455 -1 -19 1 -69 6 -110 10
-97 10 -294 40 -332 52 -10 3 -30 7 -45 10 -16 3 -62 14 -103 25 -303 82 -556
189 -829 349 -86 50 -267 176 -342 237 -252 206 -450 415 -628 664 -265 371
-462 846 -536 1292 -2 12 -8 49 -14 82 -11 63 -18 135 -26 245 -6 81 -6 391 0
445 2 22 7 69 10 105 19 202 66 428 137 649 61 195 184 471 265 599 18 29 33
54 33 57 0 25 222 333 328 455 139 160 428 423 561 510 13 8 33 22 45 32 113
86 417 250 606 326 222 90 542 177 725 197 33 4 62 9 65 10 3 2 44 7 90 10 47
4 87 9 89 10 6 6 503 -2 551 -8z"/>
<path d="M3278 6205 c-2 -2 -41 -6 -87 -9 -47 -4 -87 -9 -90 -10 -3 -2 -28 -6
-56 -10 -27 -3 -59 -8 -70 -10 -11 -3 -53 -12 -94 -21 -580 -124 -1128 -464
-1511 -937 -122 -151 -254 -355 -324 -503 -67 -140 -95 -205 -90 -205 4 0 2
-6 -4 -12 -12 -16 -85 -239 -106 -323 -27 -111 -49 -231 -61 -335 -3 -30 -9
-73 -12 -95 -6 -48 -6 -442 0 -470 3 -11 8 -51 12 -90 4 -38 9 -77 10 -85 1
-8 6 -35 10 -60 13 -86 74 -316 111 -420 137 -389 348 -725 639 -1015 277
-278 568 -470 930 -613 87 -35 236 -84 292 -97 225 -52 350 -72 508 -82 631
-40 1245 135 1749 497 62 45 122 89 132 98 11 9 37 32 59 51 132 111 284 273
400 425 148 194 305 483 380 701 9 28 21 59 25 70 20 48 79 278 94 365 3 19 8
44 10 55 2 11 7 49 11 85 4 36 9 74 12 85 8 35 10 439 3 470 -7 27 -8 25 -9
-16 -1 -61 -42 -201 -76 -261 -135 -241 -441 -312 -609 -141 -120 123 -105
356 32 496 l46 47 -34 1 c-19 1 -64 2 -100 3 -217 6 -406 -82 -588 -273 -57
-60 -126 -147 -329 -421 -92 -125 -201 -241 -279 -296 -271 -193 -628 -180
-840 32 -62 62 -128 176 -139 239 -2 17 -8 50 -13 75 -33 184 55 439 200 581
32 32 55 60 50 63 -35 22 -293 30 -367 11 -253 -62 -417 -184 -685 -510 -243
-295 -291 -340 -403 -378 -71 -24 -178 -18 -248 15 -170 78 -249 278 -215 543
43 333 262 668 561 859 156 100 404 190 610 221 171 25 244 31 518 40 327 11
547 93 722 269 59 59 92 103 122 161 68 134 88 217 86 365 -6 401 -320 728
-734 765 -88 8 -158 12 -161 10z"/>
<path d="M4888 5525 c-1 -1 -23 -6 -48 -9 -133 -18 -274 -138 -335 -286 -29
-72 -30 -218 -1 -302 64 -189 234 -311 432 -310 237 2 433 189 447 426 13 212
-129 411 -331 466 -42 11 -156 22 -164 15z"/>
<path d="M5527 4646 c-106 -40 -180 -142 -180 -251 0 -162 133 -286 292 -272
72 6 128 34 178 91 117 133 77 337 -81 418 -52 27 -157 34 -209 14z"/>
</g>
</svg>
