<svg width="200" height="200" viewBox="0 0 200 200" fill="none" xmlns="http://www.w3.org/2000/svg">
<path d="M168.785 200C159.653 200 151.092 196.027 145.187 189.2C131.248 196.268 115.706 200 100.011 200C44.8688 200 0 155.131 0 100.011C0 44.8908 44.8688 0 100.011 0C155.131 0 199.978 45.0005 200 100.296L197.893 100.318L200 100.296V100.318V168.785C200 185.995 185.995 200 168.785 200ZM147.821 177.785L150.06 181.166C154.231 187.466 161.234 191.219 168.763 191.219C181.144 191.219 191.197 181.144 191.197 168.785V100.34C191.197 49.8518 150.28 8.80255 99.989 8.80255C49.6982 8.7806 8.78059 49.6982 8.78059 100.011C8.78059 150.324 49.6982 191.241 100.011 191.241C115.487 191.241 130.809 187.268 144.287 179.761L147.821 177.785Z" fill="black"/>
<path fill-rule="evenodd" clip-rule="evenodd" d="M96.0816 177.192C138.689 178.839 174.58 145.56 176.183 102.887C176.336 99.1988 176.227 95.6207 175.853 92.0426C176.007 96.367 174.844 100.911 172.166 104.16C166.129 111.47 155.746 109.714 154.034 102.184C153.134 98.0793 154.89 93.0963 158.402 90.7475C138.931 87.6523 133.399 106.443 123.214 116.431C112.238 127.231 95.2255 123.323 92.3279 110.504C90.7255 103.392 93.7109 94.7426 99.7475 90.528C89.606 88.1791 81.879 91.1645 74.7448 98.3207C67.9618 105.06 63.1105 114.016 54.9007 118.823C47.1737 123.411 36.4395 123.85 29.5686 117.375C24.4979 112.611 22.1051 104.972 21.8856 96.9158C20.2612 139.633 53.4738 175.524 96.0816 177.192Z" fill="#909090"/>
<path fill-rule="evenodd" clip-rule="evenodd" d="M92.0865 67.6325C131.116 67.3691 125.738 19.6685 91.6036 22.9173C53.7372 26.5393 23.4003 57.7982 21.9076 96.9597C22.1271 105.016 24.5198 112.655 29.5906 117.418C36.4614 123.872 47.1957 123.455 54.9226 118.867C58.2812 116.936 61.0471 114.279 63.6154 111.382C56.1958 120.031 44.8469 115.86 44.2103 104.752C43.6176 93.9084 49.5884 82.9546 58.1934 76.5448C67.5008 69.5423 79.662 67.6764 92.0865 67.6325Z" fill="#D4D4D4"/>
<path fill-rule="evenodd" clip-rule="evenodd" d="M141.368 42.103C148.568 42.3664 154.165 48.4031 153.858 55.6251C153.595 62.7813 147.558 68.4009 140.424 68.1155C133.224 67.7862 127.67 61.7496 127.955 54.5934C128.197 47.3713 134.211 41.8176 141.368 42.103Z" fill="#D4D4D4"/>
<path fill-rule="evenodd" clip-rule="evenodd" d="M160.773 66.8203C165.031 66.974 168.346 70.5521 168.192 74.8326C168.039 79.1131 164.395 82.4717 160.136 82.3181C155.877 82.0986 152.563 78.5205 152.716 74.2399C152.892 69.9813 156.514 66.6667 160.773 66.8203Z" fill="#D4D4D4"/>
</svg>
