<svg width="1000" height="1000" viewBox="0 0 1000 1000" fill="none" xmlns="http://www.w3.org/2000/svg">
<path d="M843.925 1000C798.266 1000 755.46 980.134 725.936 945.999C656.24 981.341 578.531 1000 500.055 1000C224.344 1000 0 775.656 0 500.055C0 224.454 224.344 0 500.055 0C775.656 0 999.89 225.003 1000 501.482L989.463 501.591L1000 501.482V501.591V843.925C1000 929.975 929.975 1000 843.925 1000ZM739.107 888.925L750.302 905.828C771.156 937.328 806.168 956.097 843.815 956.097C905.718 956.097 955.987 905.718 955.987 843.925V501.701C955.987 249.259 751.399 44.0127 499.945 44.0127C248.491 43.903 43.903 248.491 43.903 500.055C43.903 751.619 248.491 956.207 500.055 956.207C577.434 956.207 654.045 936.341 721.436 898.804L739.107 888.925Z" fill="black"/>
<path fill-rule="evenodd" clip-rule="evenodd" d="M480.408 885.962C693.447 894.194 872.901 727.801 880.913 514.433C881.682 495.994 881.133 478.103 879.267 460.213C880.035 481.835 874.218 504.555 860.828 520.799C830.644 557.348 778.729 548.567 770.168 510.921C765.668 490.396 774.448 465.481 792.01 453.737C694.655 438.261 666.996 532.214 616.068 582.153C561.19 636.154 476.128 616.617 461.64 552.519C453.627 516.957 468.554 473.713 498.738 452.639C448.03 440.895 409.395 455.822 373.724 491.603C339.809 525.299 315.553 570.08 274.503 594.117C235.869 617.056 182.197 619.251 147.843 586.873C122.489 563.055 110.526 524.86 109.428 484.579C101.306 698.167 267.369 877.62 480.408 885.962Z" fill="url(#paint0_linear)"/>
<path fill-rule="evenodd" clip-rule="evenodd" d="M460.433 338.162C655.581 336.845 628.691 98.3424 458.018 114.587C268.686 132.697 117.002 288.991 109.538 484.798C110.636 525.079 122.599 563.275 147.953 587.092C182.307 619.361 235.979 617.276 274.613 594.336C291.406 584.678 305.236 571.397 318.077 556.909C280.979 600.153 224.235 579.299 221.052 523.762C218.088 469.542 247.942 414.773 290.967 382.724C337.504 347.711 398.31 338.382 460.433 338.162Z" fill="url(#paint1_linear)"/>
<path fill-rule="evenodd" clip-rule="evenodd" d="M706.838 210.515C742.838 211.832 770.826 242.015 769.29 278.126C767.973 313.907 737.789 342.004 702.118 340.578C666.118 338.931 638.349 308.748 639.776 272.967C640.983 236.857 671.057 209.088 706.838 210.515Z" fill="url(#paint2_linear)"/>
<path fill-rule="evenodd" clip-rule="evenodd" d="M803.863 334.102C825.156 334.87 841.73 352.761 840.961 374.163C840.193 395.566 821.973 412.359 800.68 411.591C779.387 410.493 762.814 392.603 763.582 371.2C764.46 349.907 782.57 333.334 803.863 334.102Z" fill="url(#paint3_linear)"/>
<defs>
<linearGradient id="paint0_linear" x1="540.829" y1="306.404" x2="423.027" y2="843.056" gradientUnits="userSpaceOnUse">
<stop stop-color="#521C89"/>
<stop offset="0.5164" stop-color="#8D1AF1"/>
<stop offset="1" stop-color="#FFA5F6"/>
</linearGradient>
<linearGradient id="paint1_linear" x1="296.751" y1="584.416" x2="381.83" y2="224.466" gradientUnits="userSpaceOnUse">
<stop stop-color="#1837D8"/>
<stop offset="0.5074" stop-color="#00C1FF"/>
<stop offset="1" stop-color="#70E6FF"/>
</linearGradient>
<linearGradient id="paint2_linear" x1="613.694" y1="659.331" x2="698.774" y2="299.381" gradientUnits="userSpaceOnUse">
<stop stop-color="#1837D8"/>
<stop offset="0.5074" stop-color="#00C1FF"/>
<stop offset="1" stop-color="#70E6FF"/>
</linearGradient>
<linearGradient id="paint3_linear" x1="728.148" y1="686.383" x2="813.226" y2="326.433" gradientUnits="userSpaceOnUse">
<stop stop-color="#1837D8"/>
<stop offset="0.5074" stop-color="#00C1FF"/>
<stop offset="1" stop-color="#70E6FF"/>
</linearGradient>
</defs>
</svg>
